<?xml version="1.0" encoding="UTF-8"?>
<svg id="_レイヤー_2" data-name="レイヤー 2" xmlns="http://www.w3.org/2000/svg" viewBox="0 0 197.14 68.32">
  <defs>
    <style>
      .cls-1 {
        fill: #68c5bb;
      }

      .cls-2 {
        fill: #fff;
      }
    </style>
  </defs>
  <g id="_レイヤー_1-2" data-name="レイヤー 1">
    <g>
      <path class="cls-2" d="M191.15,38.34c.36.36.53,1.04.97,1.25.02-.82-.05-2.26.87-2.56.83-.28,3.65-.33,3.96.71-.15,5.22.4,10.75.1,15.94-.46,7.84-4.59,10.8-12.28,10.12-1.25-.11-5.5-1.29-5.86-2.58-.15-.54.68-2.64,1.16-2.96.86-.58,2.1.54,2.95.84,5.41,1.93,9.56,0,8.91-6.18-.42.34-.64.83-1.1,1.22-4.51,3.88-11.78.7-13.22-4.73-1.49-5.63.99-12.46,7.5-12.9,1.87-.13,4.68.5,6.03,1.84ZM186.76,40.77c-5.93.5-5.82,9.9-.65,10.76,7.82,1.31,8.08-11.39.65-10.76Z"/>
      <path class="cls-2" d="M62.06,30.29c2.47-.21,7.03.31,9,1.94.86.72.9.94.48,1.96-1.6,3.89-2.52,1.62-5.42,1.01-7.28-1.54-12.47,3.98-10.61,11.12,1.45,5.56,6.79,7.32,11.97,5.52.79-.27,1.83-1.27,2.66-.89.35.16,1.5,2.07,1.56,2.45.36,2.15-4.47,3.47-6.11,3.64-20.04,2.06-21.23-25.21-3.54-26.74Z"/>
      <path class="cls-2" d="M80.77,39.7c1.92-2.67,7.33-3.96,10.04-2.02.25.18.1.49.31.67,1.89,1.63,2.46,1.81,2.87,4.58.59,4-.16,8.9.09,13-.27,1-4.32.73-4.63.24-.57-.9-.06-8.78-.23-10.62-.27-3.07-1.98-4.64-5.13-3.98-1.48.31-2.91,1.74-3.21,3.23-.46,2.26.49,10.21-.49,11.46-.44.56-4.46.52-4.46-.23l-.08-25.07s.31-.33.33-.33h3.99c.05-.01.56.68.56.76l.03,8.32Z"/>
      <path class="cls-2" d="M163.01,36.64c5.49-.58,10.74,2.75,11.36,8.47,1.68,15.44-22.12,15.95-20.1-.35.54-4.39,4.47-7.66,8.75-8.11ZM162.79,40.84c-5.32,1.1-5.12,12.54,1.96,11.9,4.03-.37,5.01-4.42,4.53-7.85-.44-3.17-3.51-4.67-6.49-4.05Z"/>
      <path class="cls-2" d="M115.78,54.09c-1.98-1.9-2.89-3.5-3.06-6.38-.85-14.73,21.63-14.83,20.19.59-.79,8.46-11.32,11.38-17.14,5.79ZM121.75,40.97c-5.95,1.04-5.25,12.24,1.3,11.93,7.1-.34,6.69-13.33-1.3-11.93Z"/>
      <path class="cls-2" d="M142.47,51.94l10.09-.03c.7,0,.99,4.1-.03,4.39l-14.16.1-.88-.45-.18-24.73c.14-.75.57-.74,1.2-.8.67-.07,3.89-.19,3.9.78l.06,20.74Z"/>
      <path class="cls-2" d="M103.28,37.42c.21.07.4.63.46.87l.32,2.23c.56-2.51,4.33-4.22,6.71-3.52.97.28.84,4.07.02,4.35-.6.2-1.95.18-2.74.37-6.19,1.51-3.77,8.57-4.16,13.34-.09,1.06-.11,1.32-1.22,1.44-.6.07-3.66.2-3.67-.54l-.05-18.19s.31-.33.33-.33c.82,0,3.46-.18,3.99-.01Z"/>
    </g>
    <g>
      <path class="cls-1" d="M0,37.28c.26-2,2.27-4.42,4.28-4.85,4.39-.43,9.19.27,13.54-.11,2.48-.22,1.65-1.29,1.61-3.02-.11-4.91-1.01-6.57,1.34-10.94.32-.6,1.42-2.5,1.86-2.87.28-.24.61-.33.79.04l1.41,4.37c.38-1.67.35-3.55.72-5.21.52-2.28,4.22-5.81,6.05-7.33,3.29-2.75,5.73-3.6,9.65-5.31.93-.41,4.49-1.99,5.21-2.05.78-.06,1.21.54,1.28,1.27.17,1.72-.28,4.75-.54,6.53-.18,1.24-.98,5.35-1.58,6.27-.7,1.07-5.27,1.68-6.34,2.8l5.68-.1c.49.49-1.77,5.05-2.19,5.81-2.79,4.97-5.53,5.49-10.58,8.07-1.74.89-4.08,1.44-5.63,2.3-1.69.94,1.14,1.36,1.93,1.41.98.06,1.92-.06,2.88-.24.88-.16,3.74-1.45,4.06-.36l-.04,28.57-.62.42c-4.87.18-10.58-.88-14.45,2.81-.78.74-1.57,2.77-2.58,2.77-1.17,0-1.66-1.62-2.33-2.33-3.03-3.2-9.3-3.93-13.21-2.14-.22.1-2.12,1.51-2.12.64l-.08-27.22ZM17.08,48.34c0-1.18.47-2.41.85-3.54,4.3-12.88,7.62-19.26,16.38-29.55,1.18-1.39,2.53-2.65,3.69-4.06.14-.16.81-.99.69-1.12-11.68,8.3-15.53,15.03-20.12,28.66-.75,2.21-1.67,6.27-1.8,8.52-.02.38-.15.93.33,1.09ZM3.62,37.78l.07,22.13c2.35-1.11,4.56-1,7.03-.42s5.13,1.65,6.84,3.62c3.74-3.72,9.14-4.37,14.2-4.15l-.06-21.36c-2.4.44-5.91,1.27-8.27.46-.42-.14-.57-.62-1.03-.61-.5,2.31-.55,4.63-.5,6.98.03,1.31.63,2.29-.56,3.47-2.38,2.35-3.97,3.4-5.85,6.46-.21.34-.93,2.02-1.04,2.06-.48.15-.53-.24-.58-.62-.54-3.66-.89-7.35-1.44-11,.13-1.64,3.05-5.67,3.52-7.5.18-.7.29-1.3-.52-1.39-3-.35-6.73.3-9.82.05-.68.12-1.85,1.14-1.98,1.81Z"/>
      <circle class="cls-1" cx="9.22" cy="52.25" r="1.48"/>
      <circle class="cls-1" cx="22.75" cy="52.16" r="1.48"/>
    </g>
  </g>
</svg>