<?xml version="1.0" encoding="UTF-8"?>
<svg id="_レイヤー_2" data-name="レイヤー 2" xmlns="http://www.w3.org/2000/svg" viewBox="0 0 191.49 52.55">
  <defs>
    <style>
      .cls-1 {
        fill: #fff;
      }
    </style>
  </defs>
  <g id="_レイヤー_1-2" data-name="レイヤー 1">
    <g>
      <g>
        <path class="cls-1" d="M185.86,28.24c.33.33.49.97.9,1.17.02-.77-.04-2.11.82-2.39.78-.26,3.41-.3,3.7.67-.31,9.46,3.43,26.48-11.46,24.31-2.85-.5-7.54-1.65-4.37-5.19.8-.54,1.96.51,2.76.79,5.05,1.82,8.94.03,8.34-5.75-3.67,5.12-11.95,2.39-13.37-3.31-2.68-7.72,5.68-15.82,12.68-10.29ZM181.75,30.5c-5.54.45-5.46,9.23-.64,10.05,7.3,1.24,7.59-10.62.64-10.05Z"/>
        <path class="cls-1" d="M65.27,20.35c2.32-.05,9.74.13,8.85,3.67-1.51,3.63-2.36,1.51-5.07.92-6.79-1.46-11.67,3.68-9.94,10.36,1.34,5.2,6.33,6.86,11.17,5.19,2.27-1.54,3.01-.82,3.94,1.47.33,2.01-4.18,3.23-5.72,3.38-18.73,1.87-19.77-23.61-3.23-24.99Z"/>
        <path class="cls-1" d="M82.72,29.2c3.69-4.6,11.62-3.11,12.34,3.05.54,3.74-.17,8.31.05,12.14-.25.93-4.04.67-4.33.21-1.27-3.15,2.59-15.38-4.97-13.66-5.49,1.04-1.87,10.98-3.49,13.71-.41.52-4.16.47-4.16-.23v-23.42c-.05-.57,3.79-.22,4.04-.31.92-.05.39,8.02.52,8.5Z"/>
        <path class="cls-1" d="M159.57,26.57c5.14-.53,10.02,2.6,10.59,7.94,1.52,14.43-20.71,14.84-18.78-.39.52-4.1,4.2-7.14,8.2-7.56ZM159.35,30.49c-4.98,1.01-4.82,11.71,1.79,11.13,6.8-.72,5.33-13.04-1.79-11.13Z"/>
        <path class="cls-1" d="M115.4,42.75c-12.45-14.22,16.76-25.24,16.03-5.36-.76,7.91-10.61,10.6-16.03,5.36ZM121.01,30.5c-5.56.96-4.94,11.43,1.18,11.15,6.63-.3,6.29-12.43-1.18-11.15Z"/>
        <path class="cls-1" d="M140.34,40.81h9.43c.66,0,.91,3.83-.04,4.1-1.36-.25-12.87.61-14.05-.37l-.1-23.11c.07-1.29,4.62-.96,4.76,0,0,0,0,19.38,0,19.38Z"/>
        <path class="cls-1" d="M103.76,27.13c.58.35.57,2.31.72,2.9,1.17-4.2,9.57-5.11,6.29.79-7.95-.22-6.52,7.09-6.48,12.79-.08.99-.11,1.23-1.15,1.34-.56.06-3.42.18-3.42-.52v-17c.59-.67,3.44-.31,4.04-.31Z"/>
      </g>
      <g>
        <path class="cls-1" d="M35.1,10.42c-.03.21.25.11.38.09.34-.05,2.22-.64,2.31-.55-1.75,6.46-12.35,10.89-13.64,13.82-.44,1,.85,5.18.34,6.03-.69,1.16-3.5,2.64-5.91,6.47-.12.18-.4.12-.42-.09-.54-4.97-2.63-6.19-2.49-8.37.11-1.63,4.2-4,4.39-5.42.34-2.56.38-4.98.93-7.66.24-1.16,1.04-3.96,1.95-4.71.08-.07.21-.13.23.01l.94,2.27c.35-5.34,5.06-8.85,9.62-10.77,1.2-.5,4.43-1.65,5.63-1.5.52.06.53.29.51.75-.05,1.02-.51,2.87-.77,3.91-.61,2.44-1.45,4.8-4.01,5.75ZM32.88,5.39l-1.75,1.34c-2.41,2.21-4.33,4.88-5.98,7.69-2.55,4.36-4.68,9.22-5.59,14.21.33.06.19-.09.26-.25,2.9-6.33,5.43-12.97,9.5-18.66,1.09-1.52,2.28-2.96,3.55-4.33Z"/>
        <path class="cls-1" d="M33.84,22.92c-.09-.75-.52-1.44-1.18-1.83-.35-.21-.97-.2-1.12-.55.81-.13,2.51-1.86,3.12-1.92.85-.08,2.54,2.57,2.52,3.44-.08,8.11.77,17.04.2,25.1-.08,1.14-.25,2.57-1.69,2.58-.66,0-1.48-.52-2.17-.68-2.86-.65-8.83-.8-11.34.76-1.04.65-2.4,2.73-3.29,2.74s-2.33-2.2-3.39-2.81c-2.43-1.4-7.8-1.33-10.54-.87-2.26.38-4.45,2.29-4.74-1.36-.45-5.86-.12-13.48,0-19.47.04-1.99-.05-5.37.26-7.16.29-1.67,1.69-3.06,3.36-3.35,3.96.5,10.03-.77,13.7.28,2.78.79,1.71,1.6.42,3.42-.82-.16-1.6-.45-2.44-.52-2.6-.21-7.52-.24-10.09,0-.52.05-1.67.32-1.67.98v23.52c0,.81,2.56.11,3.09.08,3.51-.16,8.15-.2,10.97,2.13.33.27.45.9,1.07.88.36-.01,1.21-1.09,1.62-1.38,2.37-1.66,6.35-1.77,9.17-1.63.64.03,4.15.84,4.15-.08v-22.28Z"/>
        <path class="cls-1" d="M12.04,35.77c2.52-.57,2.9,3.03.99,3.46-2.52.57-2.9-3.03-.99-3.46Z"/>
        <path class="cls-1" d="M24.41,35.77c2.52-.57,2.9,3.03.99,3.46-2.52.57-2.9-3.03-.99-3.46Z"/>
      </g>
    </g>
  </g>
</svg>